<mxfile host="app.diagrams.net" modified="2023-02-27T10:22:15.659Z" agent="5.0 (Macintosh; Intel Mac OS X 10_15_7) AppleWebKit/537.36 (KHTML, like Gecko) Chrome/110.0.0.0 Safari/537.36" etag="US8roCW25imJnO9FcpU6" version="20.8.23" type="github">
  <diagram name="Page-1" id="CS2kTnC1TDAq6gJB8Jur">
    <mxGraphModel dx="1306" dy="836" grid="1" gridSize="10" guides="1" tooltips="1" connect="1" arrows="1" fold="1" page="1" pageScale="1" pageWidth="850" pageHeight="1100" math="0" shadow="0">
      <root>
        <mxCell id="0" />
        <mxCell id="1" parent="0" />
        <mxCell id="PsuF3TFHvDe8dG68Cayl-43" value="" style="rounded=0;whiteSpace=wrap;html=1;fontSize=14;dashed=1;" vertex="1" parent="1">
          <mxGeometry x="40" y="470" width="360" height="290" as="geometry" />
        </mxCell>
        <mxCell id="PsuF3TFHvDe8dG68Cayl-8" style="edgeStyle=orthogonalEdgeStyle;rounded=1;orthogonalLoop=1;jettySize=auto;html=1;exitX=0.5;exitY=1;exitDx=0;exitDy=0;strokeColor=#18a5ec;startArrow=none;startFill=0;endArrow=none;endFill=0;" edge="1" parent="1">
          <mxGeometry relative="1" as="geometry">
            <mxPoint x="140" y="610" as="sourcePoint" />
            <mxPoint x="140" y="610" as="targetPoint" />
          </mxGeometry>
        </mxCell>
        <mxCell id="PsuF3TFHvDe8dG68Cayl-11" value="" style="sketch=0;outlineConnect=0;fontColor=#232F3E;gradientColor=none;fillColor=#232F3D;strokeColor=none;dashed=0;verticalLabelPosition=bottom;verticalAlign=top;align=center;html=1;fontSize=12;fontStyle=0;aspect=fixed;pointerEvents=1;shape=mxgraph.aws4.traditional_server;" vertex="1" parent="1">
          <mxGeometry x="60" y="670" width="30" height="52" as="geometry" />
        </mxCell>
        <mxCell id="PsuF3TFHvDe8dG68Cayl-13" value="" style="sketch=0;outlineConnect=0;fontColor=#232F3E;gradientColor=none;fillColor=#232F3D;strokeColor=none;dashed=0;verticalLabelPosition=bottom;verticalAlign=top;align=center;html=1;fontSize=12;fontStyle=0;aspect=fixed;pointerEvents=1;shape=mxgraph.aws4.traditional_server;" vertex="1" parent="1">
          <mxGeometry x="100" y="670" width="30" height="52" as="geometry" />
        </mxCell>
        <mxCell id="PsuF3TFHvDe8dG68Cayl-16" value="" style="sketch=0;outlineConnect=0;fontColor=#232F3E;gradientColor=none;fillColor=#232F3D;strokeColor=none;dashed=0;verticalLabelPosition=bottom;verticalAlign=top;align=center;html=1;fontSize=12;fontStyle=0;aspect=fixed;pointerEvents=1;shape=mxgraph.aws4.traditional_server;" vertex="1" parent="1">
          <mxGeometry x="140" y="670" width="30" height="52" as="geometry" />
        </mxCell>
        <mxCell id="PsuF3TFHvDe8dG68Cayl-17" value="" style="sketch=0;outlineConnect=0;fontColor=#232F3E;gradientColor=none;fillColor=#232F3D;strokeColor=none;dashed=0;verticalLabelPosition=bottom;verticalAlign=top;align=center;html=1;fontSize=12;fontStyle=0;aspect=fixed;pointerEvents=1;shape=mxgraph.aws4.traditional_server;" vertex="1" parent="1">
          <mxGeometry x="180" y="670" width="30" height="52" as="geometry" />
        </mxCell>
        <mxCell id="PsuF3TFHvDe8dG68Cayl-18" value="" style="verticalLabelPosition=bottom;sketch=0;html=1;fillColor=#6ABD46;strokeColor=#ffffff;verticalAlign=top;align=center;points=[[0.085,0.085,0],[0.915,0.085,0],[0.915,0.915,0],[0.085,0.915,0],[0.25,0,0],[0.5,0,0],[0.75,0,0],[1,0.25,0],[1,0.5,0],[1,0.75,0],[0.75,1,0],[0.5,1,0],[0.25,1,0],[0,0.75,0],[0,0.5,0],[0,0.25,0]];pointerEvents=1;shape=mxgraph.cisco_safe.compositeIcon;bgIcon=mxgraph.cisco_safe.architecture.generic_appliance;resIcon=mxgraph.cisco_safe.architecture.fabric_switch;" vertex="1" parent="1">
          <mxGeometry x="110" y="570" width="50" height="50" as="geometry" />
        </mxCell>
        <mxCell id="PsuF3TFHvDe8dG68Cayl-20" value="" style="endArrow=none;html=1;rounded=0;strokeColor=#18a5ec;entryX=0.5;entryY=1;entryDx=0;entryDy=0;entryPerimeter=0;" edge="1" parent="1" source="PsuF3TFHvDe8dG68Cayl-13" target="PsuF3TFHvDe8dG68Cayl-18">
          <mxGeometry width="50" height="50" relative="1" as="geometry">
            <mxPoint x="70" y="990" as="sourcePoint" />
            <mxPoint x="120" y="940" as="targetPoint" />
          </mxGeometry>
        </mxCell>
        <mxCell id="PsuF3TFHvDe8dG68Cayl-21" value="" style="endArrow=none;html=1;rounded=0;strokeColor=#18a5ec;entryX=0.5;entryY=1;entryDx=0;entryDy=0;entryPerimeter=0;exitX=0.4;exitY=-0.021;exitDx=0;exitDy=0;exitPerimeter=0;" edge="1" parent="1" source="PsuF3TFHvDe8dG68Cayl-11" target="PsuF3TFHvDe8dG68Cayl-18">
          <mxGeometry width="50" height="50" relative="1" as="geometry">
            <mxPoint x="392" y="710" as="sourcePoint" />
            <mxPoint x="405" y="660" as="targetPoint" />
          </mxGeometry>
        </mxCell>
        <mxCell id="PsuF3TFHvDe8dG68Cayl-22" value="" style="endArrow=none;html=1;rounded=0;strokeColor=#18a5ec;entryX=0.5;entryY=1;entryDx=0;entryDy=0;entryPerimeter=0;" edge="1" parent="1" source="PsuF3TFHvDe8dG68Cayl-16" target="PsuF3TFHvDe8dG68Cayl-18">
          <mxGeometry width="50" height="50" relative="1" as="geometry">
            <mxPoint x="530" y="740" as="sourcePoint" />
            <mxPoint x="543" y="690" as="targetPoint" />
          </mxGeometry>
        </mxCell>
        <mxCell id="PsuF3TFHvDe8dG68Cayl-23" value="" style="endArrow=none;html=1;rounded=0;strokeColor=#18a5ec;entryX=0.5;entryY=1;entryDx=0;entryDy=0;entryPerimeter=0;exitX=0.567;exitY=-0.021;exitDx=0;exitDy=0;exitPerimeter=0;" edge="1" parent="1" source="PsuF3TFHvDe8dG68Cayl-17" target="PsuF3TFHvDe8dG68Cayl-18">
          <mxGeometry width="50" height="50" relative="1" as="geometry">
            <mxPoint x="590" y="772" as="sourcePoint" />
            <mxPoint x="603" y="722" as="targetPoint" />
          </mxGeometry>
        </mxCell>
        <mxCell id="PsuF3TFHvDe8dG68Cayl-24" style="edgeStyle=orthogonalEdgeStyle;rounded=1;orthogonalLoop=1;jettySize=auto;html=1;exitX=0.5;exitY=1;exitDx=0;exitDy=0;strokeColor=#18a5ec;startArrow=none;startFill=0;endArrow=none;endFill=0;" edge="1" parent="1">
          <mxGeometry relative="1" as="geometry">
            <mxPoint x="310" y="610" as="sourcePoint" />
            <mxPoint x="310" y="610" as="targetPoint" />
          </mxGeometry>
        </mxCell>
        <mxCell id="PsuF3TFHvDe8dG68Cayl-25" value="" style="sketch=0;outlineConnect=0;fontColor=#232F3E;gradientColor=none;fillColor=#232F3D;strokeColor=none;dashed=0;verticalLabelPosition=bottom;verticalAlign=top;align=center;html=1;fontSize=12;fontStyle=0;aspect=fixed;pointerEvents=1;shape=mxgraph.aws4.traditional_server;" vertex="1" parent="1">
          <mxGeometry x="230" y="670" width="30" height="52" as="geometry" />
        </mxCell>
        <mxCell id="PsuF3TFHvDe8dG68Cayl-26" value="" style="sketch=0;outlineConnect=0;fontColor=#232F3E;gradientColor=none;fillColor=#232F3D;strokeColor=none;dashed=0;verticalLabelPosition=bottom;verticalAlign=top;align=center;html=1;fontSize=12;fontStyle=0;aspect=fixed;pointerEvents=1;shape=mxgraph.aws4.traditional_server;" vertex="1" parent="1">
          <mxGeometry x="270" y="670" width="30" height="52" as="geometry" />
        </mxCell>
        <mxCell id="PsuF3TFHvDe8dG68Cayl-27" value="" style="sketch=0;outlineConnect=0;fontColor=#232F3E;gradientColor=none;fillColor=#232F3D;strokeColor=none;dashed=0;verticalLabelPosition=bottom;verticalAlign=top;align=center;html=1;fontSize=12;fontStyle=0;aspect=fixed;pointerEvents=1;shape=mxgraph.aws4.traditional_server;" vertex="1" parent="1">
          <mxGeometry x="310" y="670" width="30" height="52" as="geometry" />
        </mxCell>
        <mxCell id="PsuF3TFHvDe8dG68Cayl-28" value="" style="sketch=0;outlineConnect=0;fontColor=#232F3E;gradientColor=none;fillColor=#232F3D;strokeColor=none;dashed=0;verticalLabelPosition=bottom;verticalAlign=top;align=center;html=1;fontSize=12;fontStyle=0;aspect=fixed;pointerEvents=1;shape=mxgraph.aws4.traditional_server;" vertex="1" parent="1">
          <mxGeometry x="350" y="670" width="30" height="52" as="geometry" />
        </mxCell>
        <mxCell id="PsuF3TFHvDe8dG68Cayl-29" value="" style="verticalLabelPosition=bottom;sketch=0;html=1;fillColor=#6ABD46;strokeColor=#ffffff;verticalAlign=top;align=center;points=[[0.085,0.085,0],[0.915,0.085,0],[0.915,0.915,0],[0.085,0.915,0],[0.25,0,0],[0.5,0,0],[0.75,0,0],[1,0.25,0],[1,0.5,0],[1,0.75,0],[0.75,1,0],[0.5,1,0],[0.25,1,0],[0,0.75,0],[0,0.5,0],[0,0.25,0]];pointerEvents=1;shape=mxgraph.cisco_safe.compositeIcon;bgIcon=mxgraph.cisco_safe.architecture.generic_appliance;resIcon=mxgraph.cisco_safe.architecture.fabric_switch;" vertex="1" parent="1">
          <mxGeometry x="280" y="570" width="50" height="50" as="geometry" />
        </mxCell>
        <mxCell id="PsuF3TFHvDe8dG68Cayl-30" value="" style="endArrow=none;html=1;rounded=0;strokeColor=#18a5ec;entryX=0.5;entryY=1;entryDx=0;entryDy=0;entryPerimeter=0;" edge="1" parent="1" source="PsuF3TFHvDe8dG68Cayl-26" target="PsuF3TFHvDe8dG68Cayl-29">
          <mxGeometry width="50" height="50" relative="1" as="geometry">
            <mxPoint x="240" y="990" as="sourcePoint" />
            <mxPoint x="290" y="940" as="targetPoint" />
          </mxGeometry>
        </mxCell>
        <mxCell id="PsuF3TFHvDe8dG68Cayl-31" value="" style="endArrow=none;html=1;rounded=0;strokeColor=#18a5ec;entryX=0.5;entryY=1;entryDx=0;entryDy=0;entryPerimeter=0;exitX=0.4;exitY=-0.021;exitDx=0;exitDy=0;exitPerimeter=0;" edge="1" parent="1" source="PsuF3TFHvDe8dG68Cayl-25" target="PsuF3TFHvDe8dG68Cayl-29">
          <mxGeometry width="50" height="50" relative="1" as="geometry">
            <mxPoint x="562" y="710" as="sourcePoint" />
            <mxPoint x="575" y="660" as="targetPoint" />
          </mxGeometry>
        </mxCell>
        <mxCell id="PsuF3TFHvDe8dG68Cayl-32" value="" style="endArrow=none;html=1;rounded=0;strokeColor=#18a5ec;entryX=0.5;entryY=1;entryDx=0;entryDy=0;entryPerimeter=0;" edge="1" parent="1" source="PsuF3TFHvDe8dG68Cayl-27" target="PsuF3TFHvDe8dG68Cayl-29">
          <mxGeometry width="50" height="50" relative="1" as="geometry">
            <mxPoint x="700" y="740" as="sourcePoint" />
            <mxPoint x="713" y="690" as="targetPoint" />
          </mxGeometry>
        </mxCell>
        <mxCell id="PsuF3TFHvDe8dG68Cayl-33" value="" style="endArrow=none;html=1;rounded=0;strokeColor=#18a5ec;entryX=0.5;entryY=1;entryDx=0;entryDy=0;entryPerimeter=0;exitX=0.567;exitY=-0.021;exitDx=0;exitDy=0;exitPerimeter=0;" edge="1" parent="1" source="PsuF3TFHvDe8dG68Cayl-28" target="PsuF3TFHvDe8dG68Cayl-29">
          <mxGeometry width="50" height="50" relative="1" as="geometry">
            <mxPoint x="760" y="772" as="sourcePoint" />
            <mxPoint x="773" y="722" as="targetPoint" />
          </mxGeometry>
        </mxCell>
        <mxCell id="PsuF3TFHvDe8dG68Cayl-34" value="&lt;b&gt;&lt;font style=&quot;font-size: 14px;&quot;&gt;EA&lt;/font&gt;&lt;/b&gt;" style="text;html=1;strokeColor=none;fillColor=none;align=center;verticalAlign=middle;whiteSpace=wrap;rounded=0;" vertex="1" parent="1">
          <mxGeometry x="335" y="580" width="60" height="30" as="geometry" />
        </mxCell>
        <mxCell id="PsuF3TFHvDe8dG68Cayl-35" value="" style="verticalLabelPosition=bottom;sketch=0;html=1;fillColor=#6ABD46;strokeColor=#ffffff;verticalAlign=top;align=center;points=[[0.085,0.085,0],[0.915,0.085,0],[0.915,0.915,0],[0.085,0.915,0],[0.25,0,0],[0.5,0,0],[0.75,0,0],[1,0.25,0],[1,0.5,0],[1,0.75,0],[0.75,1,0],[0.5,1,0],[0.25,1,0],[0,0.75,0],[0,0.5,0],[0,0.25,0]];pointerEvents=1;shape=mxgraph.cisco_safe.compositeIcon;bgIcon=mxgraph.cisco_safe.architecture.generic_appliance;resIcon=mxgraph.cisco_safe.architecture.fabric_switch;" vertex="1" parent="1">
          <mxGeometry x="110" y="480" width="50" height="50" as="geometry" />
        </mxCell>
        <mxCell id="PsuF3TFHvDe8dG68Cayl-36" value="" style="verticalLabelPosition=bottom;sketch=0;html=1;fillColor=#6ABD46;strokeColor=#ffffff;verticalAlign=top;align=center;points=[[0.085,0.085,0],[0.915,0.085,0],[0.915,0.915,0],[0.085,0.915,0],[0.25,0,0],[0.5,0,0],[0.75,0,0],[1,0.25,0],[1,0.5,0],[1,0.75,0],[0.75,1,0],[0.5,1,0],[0.25,1,0],[0,0.75,0],[0,0.5,0],[0,0.25,0]];pointerEvents=1;shape=mxgraph.cisco_safe.compositeIcon;bgIcon=mxgraph.cisco_safe.architecture.generic_appliance;resIcon=mxgraph.cisco_safe.architecture.fabric_switch;" vertex="1" parent="1">
          <mxGeometry x="280" y="480" width="50" height="50" as="geometry" />
        </mxCell>
        <mxCell id="PsuF3TFHvDe8dG68Cayl-37" value="&lt;b&gt;&lt;font style=&quot;font-size: 14px;&quot;&gt;EC&lt;/font&gt;&lt;/b&gt;" style="text;html=1;strokeColor=none;fillColor=none;align=center;verticalAlign=middle;whiteSpace=wrap;rounded=0;" vertex="1" parent="1">
          <mxGeometry x="335" y="490" width="60" height="30" as="geometry" />
        </mxCell>
        <mxCell id="PsuF3TFHvDe8dG68Cayl-38" value="" style="endArrow=none;html=1;rounded=0;strokeColor=#18a5ec;entryX=0.5;entryY=1;entryDx=0;entryDy=0;entryPerimeter=0;exitX=0.5;exitY=0;exitDx=0;exitDy=0;exitPerimeter=0;" edge="1" parent="1" source="PsuF3TFHvDe8dG68Cayl-29" target="PsuF3TFHvDe8dG68Cayl-35">
          <mxGeometry width="50" height="50" relative="1" as="geometry">
            <mxPoint x="280" y="1019" as="sourcePoint" />
            <mxPoint x="343" y="970" as="targetPoint" />
          </mxGeometry>
        </mxCell>
        <mxCell id="PsuF3TFHvDe8dG68Cayl-39" value="" style="endArrow=none;html=1;rounded=0;strokeColor=#18a5ec;entryX=0.5;entryY=1;entryDx=0;entryDy=0;entryPerimeter=0;exitX=0.5;exitY=0;exitDx=0;exitDy=0;exitPerimeter=0;" edge="1" parent="1" source="PsuF3TFHvDe8dG68Cayl-18" target="PsuF3TFHvDe8dG68Cayl-35">
          <mxGeometry width="50" height="50" relative="1" as="geometry">
            <mxPoint x="290" y="1029" as="sourcePoint" />
            <mxPoint x="353" y="980" as="targetPoint" />
          </mxGeometry>
        </mxCell>
        <mxCell id="PsuF3TFHvDe8dG68Cayl-40" value="" style="endArrow=none;html=1;rounded=0;strokeColor=#18a5ec;entryX=0.5;entryY=1;entryDx=0;entryDy=0;entryPerimeter=0;exitX=0.5;exitY=0;exitDx=0;exitDy=0;exitPerimeter=0;" edge="1" parent="1" source="PsuF3TFHvDe8dG68Cayl-18" target="PsuF3TFHvDe8dG68Cayl-36">
          <mxGeometry width="50" height="50" relative="1" as="geometry">
            <mxPoint x="300" y="1039" as="sourcePoint" />
            <mxPoint x="363" y="990" as="targetPoint" />
          </mxGeometry>
        </mxCell>
        <mxCell id="PsuF3TFHvDe8dG68Cayl-41" value="" style="endArrow=none;html=1;rounded=0;strokeColor=#18a5ec;entryX=0.5;entryY=1;entryDx=0;entryDy=0;entryPerimeter=0;" edge="1" parent="1" target="PsuF3TFHvDe8dG68Cayl-36">
          <mxGeometry width="50" height="50" relative="1" as="geometry">
            <mxPoint x="305" y="570" as="sourcePoint" />
            <mxPoint x="373" y="1000" as="targetPoint" />
          </mxGeometry>
        </mxCell>
        <mxCell id="PsuF3TFHvDe8dG68Cayl-42" value="" style="endArrow=none;html=1;rounded=0;strokeColor=#18a5ec;entryX=1;entryY=0.5;entryDx=0;entryDy=0;entryPerimeter=0;exitX=0;exitY=0.5;exitDx=0;exitDy=0;exitPerimeter=0;" edge="1" parent="1" source="PsuF3TFHvDe8dG68Cayl-36" target="PsuF3TFHvDe8dG68Cayl-35">
          <mxGeometry width="50" height="50" relative="1" as="geometry">
            <mxPoint x="320" y="1059" as="sourcePoint" />
            <mxPoint x="383" y="1010" as="targetPoint" />
          </mxGeometry>
        </mxCell>
        <mxCell id="PsuF3TFHvDe8dG68Cayl-44" value="&lt;font style=&quot;font-size: 10px;&quot;&gt;EBGP&lt;/font&gt;" style="text;html=1;strokeColor=none;fillColor=none;align=center;verticalAlign=middle;whiteSpace=wrap;rounded=0;fontSize=14;" vertex="1" parent="1">
          <mxGeometry x="50" y="620" width="50" height="30" as="geometry" />
        </mxCell>
        <mxCell id="PsuF3TFHvDe8dG68Cayl-45" value="&lt;font style=&quot;font-size: 10px;&quot;&gt;EBGP&lt;/font&gt;" style="text;html=1;strokeColor=none;fillColor=none;align=center;verticalAlign=middle;whiteSpace=wrap;rounded=0;fontSize=14;" vertex="1" parent="1">
          <mxGeometry x="50" y="540" width="50" height="30" as="geometry" />
        </mxCell>
        <mxCell id="PsuF3TFHvDe8dG68Cayl-46" value="" style="endArrow=classic;html=1;rounded=0;strokeColor=#18a5ec;fontSize=10;entryX=0.5;entryY=1;entryDx=0;entryDy=0;exitX=0.5;exitY=0;exitDx=0;exitDy=0;" edge="1" parent="1" source="PsuF3TFHvDe8dG68Cayl-44" target="PsuF3TFHvDe8dG68Cayl-45">
          <mxGeometry width="50" height="50" relative="1" as="geometry">
            <mxPoint x="75" y="610" as="sourcePoint" />
            <mxPoint x="120" y="960" as="targetPoint" />
          </mxGeometry>
        </mxCell>
        <mxCell id="PsuF3TFHvDe8dG68Cayl-47" value="" style="endArrow=classic;html=1;rounded=0;strokeColor=#18a5ec;fontSize=10;entryX=0.5;entryY=0;entryDx=0;entryDy=0;" edge="1" parent="1" target="PsuF3TFHvDe8dG68Cayl-45">
          <mxGeometry width="50" height="50" relative="1" as="geometry">
            <mxPoint x="75" y="500" as="sourcePoint" />
            <mxPoint x="230" y="970" as="targetPoint" />
          </mxGeometry>
        </mxCell>
        <mxCell id="PsuF3TFHvDe8dG68Cayl-48" value="" style="endArrow=classic;html=1;rounded=0;strokeColor=#18a5ec;fontSize=10;exitX=0.5;exitY=1;exitDx=0;exitDy=0;" edge="1" parent="1" source="PsuF3TFHvDe8dG68Cayl-44">
          <mxGeometry width="50" height="50" relative="1" as="geometry">
            <mxPoint x="70" y="1060" as="sourcePoint" />
            <mxPoint x="75" y="660" as="targetPoint" />
          </mxGeometry>
        </mxCell>
        <mxCell id="PsuF3TFHvDe8dG68Cayl-50" value="&lt;b&gt;&lt;font style=&quot;font-size: 18px;&quot;&gt;数据中心 A&lt;/font&gt;&lt;/b&gt;" style="text;html=1;strokeColor=none;fillColor=none;align=center;verticalAlign=middle;whiteSpace=wrap;rounded=0;fontSize=10;" vertex="1" parent="1">
          <mxGeometry x="130" y="770" width="140" height="30" as="geometry" />
        </mxCell>
        <mxCell id="PsuF3TFHvDe8dG68Cayl-51" value="&lt;span style=&quot;font-size: 10px;&quot;&gt;外网接入服务器&lt;/span&gt;" style="text;html=1;strokeColor=none;fillColor=none;align=center;verticalAlign=middle;whiteSpace=wrap;rounded=0;fontSize=14;" vertex="1" parent="1">
          <mxGeometry x="102.5" y="722" width="80" height="30" as="geometry" />
        </mxCell>
        <mxCell id="PsuF3TFHvDe8dG68Cayl-52" value="&lt;span style=&quot;font-size: 10px;&quot;&gt;外网接入服务器&lt;/span&gt;" style="text;html=1;strokeColor=none;fillColor=none;align=center;verticalAlign=middle;whiteSpace=wrap;rounded=0;fontSize=14;" vertex="1" parent="1">
          <mxGeometry x="260" y="722" width="80" height="30" as="geometry" />
        </mxCell>
        <mxCell id="PsuF3TFHvDe8dG68Cayl-53" value="" style="rounded=0;whiteSpace=wrap;html=1;fontSize=14;dashed=1;" vertex="1" parent="1">
          <mxGeometry x="440" y="470" width="360" height="290" as="geometry" />
        </mxCell>
        <mxCell id="PsuF3TFHvDe8dG68Cayl-54" style="edgeStyle=orthogonalEdgeStyle;rounded=1;orthogonalLoop=1;jettySize=auto;html=1;exitX=0.5;exitY=1;exitDx=0;exitDy=0;strokeColor=#18a5ec;startArrow=none;startFill=0;endArrow=none;endFill=0;" edge="1" parent="1">
          <mxGeometry relative="1" as="geometry">
            <mxPoint x="540" y="610" as="sourcePoint" />
            <mxPoint x="540" y="610" as="targetPoint" />
          </mxGeometry>
        </mxCell>
        <mxCell id="PsuF3TFHvDe8dG68Cayl-55" value="" style="sketch=0;outlineConnect=0;fontColor=#232F3E;gradientColor=none;fillColor=#232F3D;strokeColor=none;dashed=0;verticalLabelPosition=bottom;verticalAlign=top;align=center;html=1;fontSize=12;fontStyle=0;aspect=fixed;pointerEvents=1;shape=mxgraph.aws4.traditional_server;" vertex="1" parent="1">
          <mxGeometry x="460" y="670" width="30" height="52" as="geometry" />
        </mxCell>
        <mxCell id="PsuF3TFHvDe8dG68Cayl-56" value="" style="sketch=0;outlineConnect=0;fontColor=#232F3E;gradientColor=none;fillColor=#232F3D;strokeColor=none;dashed=0;verticalLabelPosition=bottom;verticalAlign=top;align=center;html=1;fontSize=12;fontStyle=0;aspect=fixed;pointerEvents=1;shape=mxgraph.aws4.traditional_server;" vertex="1" parent="1">
          <mxGeometry x="500" y="670" width="30" height="52" as="geometry" />
        </mxCell>
        <mxCell id="PsuF3TFHvDe8dG68Cayl-57" value="" style="sketch=0;outlineConnect=0;fontColor=#232F3E;gradientColor=none;fillColor=#232F3D;strokeColor=none;dashed=0;verticalLabelPosition=bottom;verticalAlign=top;align=center;html=1;fontSize=12;fontStyle=0;aspect=fixed;pointerEvents=1;shape=mxgraph.aws4.traditional_server;" vertex="1" parent="1">
          <mxGeometry x="540" y="670" width="30" height="52" as="geometry" />
        </mxCell>
        <mxCell id="PsuF3TFHvDe8dG68Cayl-58" value="" style="sketch=0;outlineConnect=0;fontColor=#232F3E;gradientColor=none;fillColor=#232F3D;strokeColor=none;dashed=0;verticalLabelPosition=bottom;verticalAlign=top;align=center;html=1;fontSize=12;fontStyle=0;aspect=fixed;pointerEvents=1;shape=mxgraph.aws4.traditional_server;" vertex="1" parent="1">
          <mxGeometry x="580" y="670" width="30" height="52" as="geometry" />
        </mxCell>
        <mxCell id="PsuF3TFHvDe8dG68Cayl-59" value="" style="verticalLabelPosition=bottom;sketch=0;html=1;fillColor=#6ABD46;strokeColor=#ffffff;verticalAlign=top;align=center;points=[[0.085,0.085,0],[0.915,0.085,0],[0.915,0.915,0],[0.085,0.915,0],[0.25,0,0],[0.5,0,0],[0.75,0,0],[1,0.25,0],[1,0.5,0],[1,0.75,0],[0.75,1,0],[0.5,1,0],[0.25,1,0],[0,0.75,0],[0,0.5,0],[0,0.25,0]];pointerEvents=1;shape=mxgraph.cisco_safe.compositeIcon;bgIcon=mxgraph.cisco_safe.architecture.generic_appliance;resIcon=mxgraph.cisco_safe.architecture.fabric_switch;" vertex="1" parent="1">
          <mxGeometry x="510" y="570" width="50" height="50" as="geometry" />
        </mxCell>
        <mxCell id="PsuF3TFHvDe8dG68Cayl-60" value="" style="endArrow=none;html=1;rounded=0;strokeColor=#18a5ec;entryX=0.5;entryY=1;entryDx=0;entryDy=0;entryPerimeter=0;" edge="1" parent="1" source="PsuF3TFHvDe8dG68Cayl-56" target="PsuF3TFHvDe8dG68Cayl-59">
          <mxGeometry width="50" height="50" relative="1" as="geometry">
            <mxPoint x="470" y="990" as="sourcePoint" />
            <mxPoint x="520" y="940" as="targetPoint" />
          </mxGeometry>
        </mxCell>
        <mxCell id="PsuF3TFHvDe8dG68Cayl-61" value="" style="endArrow=none;html=1;rounded=0;strokeColor=#18a5ec;entryX=0.5;entryY=1;entryDx=0;entryDy=0;entryPerimeter=0;exitX=0.4;exitY=-0.021;exitDx=0;exitDy=0;exitPerimeter=0;" edge="1" parent="1" source="PsuF3TFHvDe8dG68Cayl-55" target="PsuF3TFHvDe8dG68Cayl-59">
          <mxGeometry width="50" height="50" relative="1" as="geometry">
            <mxPoint x="792" y="710" as="sourcePoint" />
            <mxPoint x="805" y="660" as="targetPoint" />
          </mxGeometry>
        </mxCell>
        <mxCell id="PsuF3TFHvDe8dG68Cayl-62" value="" style="endArrow=none;html=1;rounded=0;strokeColor=#18a5ec;entryX=0.5;entryY=1;entryDx=0;entryDy=0;entryPerimeter=0;" edge="1" parent="1" source="PsuF3TFHvDe8dG68Cayl-57" target="PsuF3TFHvDe8dG68Cayl-59">
          <mxGeometry width="50" height="50" relative="1" as="geometry">
            <mxPoint x="930" y="740" as="sourcePoint" />
            <mxPoint x="943" y="690" as="targetPoint" />
          </mxGeometry>
        </mxCell>
        <mxCell id="PsuF3TFHvDe8dG68Cayl-63" value="" style="endArrow=none;html=1;rounded=0;strokeColor=#18a5ec;entryX=0.5;entryY=1;entryDx=0;entryDy=0;entryPerimeter=0;exitX=0.567;exitY=-0.021;exitDx=0;exitDy=0;exitPerimeter=0;" edge="1" parent="1" source="PsuF3TFHvDe8dG68Cayl-58" target="PsuF3TFHvDe8dG68Cayl-59">
          <mxGeometry width="50" height="50" relative="1" as="geometry">
            <mxPoint x="990" y="772" as="sourcePoint" />
            <mxPoint x="1003" y="722" as="targetPoint" />
          </mxGeometry>
        </mxCell>
        <mxCell id="PsuF3TFHvDe8dG68Cayl-64" style="edgeStyle=orthogonalEdgeStyle;rounded=1;orthogonalLoop=1;jettySize=auto;html=1;exitX=0.5;exitY=1;exitDx=0;exitDy=0;strokeColor=#18a5ec;startArrow=none;startFill=0;endArrow=none;endFill=0;" edge="1" parent="1">
          <mxGeometry relative="1" as="geometry">
            <mxPoint x="710" y="610" as="sourcePoint" />
            <mxPoint x="710" y="610" as="targetPoint" />
          </mxGeometry>
        </mxCell>
        <mxCell id="PsuF3TFHvDe8dG68Cayl-65" value="" style="sketch=0;outlineConnect=0;fontColor=#232F3E;gradientColor=none;fillColor=#232F3D;strokeColor=none;dashed=0;verticalLabelPosition=bottom;verticalAlign=top;align=center;html=1;fontSize=12;fontStyle=0;aspect=fixed;pointerEvents=1;shape=mxgraph.aws4.traditional_server;" vertex="1" parent="1">
          <mxGeometry x="630" y="670" width="30" height="52" as="geometry" />
        </mxCell>
        <mxCell id="PsuF3TFHvDe8dG68Cayl-66" value="" style="sketch=0;outlineConnect=0;fontColor=#232F3E;gradientColor=none;fillColor=#232F3D;strokeColor=none;dashed=0;verticalLabelPosition=bottom;verticalAlign=top;align=center;html=1;fontSize=12;fontStyle=0;aspect=fixed;pointerEvents=1;shape=mxgraph.aws4.traditional_server;" vertex="1" parent="1">
          <mxGeometry x="670" y="670" width="30" height="52" as="geometry" />
        </mxCell>
        <mxCell id="PsuF3TFHvDe8dG68Cayl-67" value="" style="sketch=0;outlineConnect=0;fontColor=#232F3E;gradientColor=none;fillColor=#232F3D;strokeColor=none;dashed=0;verticalLabelPosition=bottom;verticalAlign=top;align=center;html=1;fontSize=12;fontStyle=0;aspect=fixed;pointerEvents=1;shape=mxgraph.aws4.traditional_server;" vertex="1" parent="1">
          <mxGeometry x="710" y="670" width="30" height="52" as="geometry" />
        </mxCell>
        <mxCell id="PsuF3TFHvDe8dG68Cayl-68" value="" style="sketch=0;outlineConnect=0;fontColor=#232F3E;gradientColor=none;fillColor=#232F3D;strokeColor=none;dashed=0;verticalLabelPosition=bottom;verticalAlign=top;align=center;html=1;fontSize=12;fontStyle=0;aspect=fixed;pointerEvents=1;shape=mxgraph.aws4.traditional_server;" vertex="1" parent="1">
          <mxGeometry x="750" y="670" width="30" height="52" as="geometry" />
        </mxCell>
        <mxCell id="PsuF3TFHvDe8dG68Cayl-69" value="" style="verticalLabelPosition=bottom;sketch=0;html=1;fillColor=#6ABD46;strokeColor=#ffffff;verticalAlign=top;align=center;points=[[0.085,0.085,0],[0.915,0.085,0],[0.915,0.915,0],[0.085,0.915,0],[0.25,0,0],[0.5,0,0],[0.75,0,0],[1,0.25,0],[1,0.5,0],[1,0.75,0],[0.75,1,0],[0.5,1,0],[0.25,1,0],[0,0.75,0],[0,0.5,0],[0,0.25,0]];pointerEvents=1;shape=mxgraph.cisco_safe.compositeIcon;bgIcon=mxgraph.cisco_safe.architecture.generic_appliance;resIcon=mxgraph.cisco_safe.architecture.fabric_switch;" vertex="1" parent="1">
          <mxGeometry x="680" y="570" width="50" height="50" as="geometry" />
        </mxCell>
        <mxCell id="PsuF3TFHvDe8dG68Cayl-70" value="" style="endArrow=none;html=1;rounded=0;strokeColor=#18a5ec;entryX=0.5;entryY=1;entryDx=0;entryDy=0;entryPerimeter=0;" edge="1" parent="1" source="PsuF3TFHvDe8dG68Cayl-66" target="PsuF3TFHvDe8dG68Cayl-69">
          <mxGeometry width="50" height="50" relative="1" as="geometry">
            <mxPoint x="640" y="990" as="sourcePoint" />
            <mxPoint x="690" y="940" as="targetPoint" />
          </mxGeometry>
        </mxCell>
        <mxCell id="PsuF3TFHvDe8dG68Cayl-71" value="" style="endArrow=none;html=1;rounded=0;strokeColor=#18a5ec;entryX=0.5;entryY=1;entryDx=0;entryDy=0;entryPerimeter=0;exitX=0.4;exitY=-0.021;exitDx=0;exitDy=0;exitPerimeter=0;" edge="1" parent="1" source="PsuF3TFHvDe8dG68Cayl-65" target="PsuF3TFHvDe8dG68Cayl-69">
          <mxGeometry width="50" height="50" relative="1" as="geometry">
            <mxPoint x="962" y="710" as="sourcePoint" />
            <mxPoint x="975" y="660" as="targetPoint" />
          </mxGeometry>
        </mxCell>
        <mxCell id="PsuF3TFHvDe8dG68Cayl-72" value="" style="endArrow=none;html=1;rounded=0;strokeColor=#18a5ec;entryX=0.5;entryY=1;entryDx=0;entryDy=0;entryPerimeter=0;" edge="1" parent="1" source="PsuF3TFHvDe8dG68Cayl-67" target="PsuF3TFHvDe8dG68Cayl-69">
          <mxGeometry width="50" height="50" relative="1" as="geometry">
            <mxPoint x="1100" y="740" as="sourcePoint" />
            <mxPoint x="1113" y="690" as="targetPoint" />
          </mxGeometry>
        </mxCell>
        <mxCell id="PsuF3TFHvDe8dG68Cayl-73" value="" style="endArrow=none;html=1;rounded=0;strokeColor=#18a5ec;entryX=0.5;entryY=1;entryDx=0;entryDy=0;entryPerimeter=0;exitX=0.567;exitY=-0.021;exitDx=0;exitDy=0;exitPerimeter=0;" edge="1" parent="1" source="PsuF3TFHvDe8dG68Cayl-68" target="PsuF3TFHvDe8dG68Cayl-69">
          <mxGeometry width="50" height="50" relative="1" as="geometry">
            <mxPoint x="1160" y="772" as="sourcePoint" />
            <mxPoint x="1173" y="722" as="targetPoint" />
          </mxGeometry>
        </mxCell>
        <mxCell id="PsuF3TFHvDe8dG68Cayl-74" value="&lt;b&gt;&lt;font style=&quot;font-size: 14px;&quot;&gt;EA&lt;/font&gt;&lt;/b&gt;" style="text;html=1;strokeColor=none;fillColor=none;align=center;verticalAlign=middle;whiteSpace=wrap;rounded=0;" vertex="1" parent="1">
          <mxGeometry x="735" y="580" width="60" height="30" as="geometry" />
        </mxCell>
        <mxCell id="PsuF3TFHvDe8dG68Cayl-75" value="" style="verticalLabelPosition=bottom;sketch=0;html=1;fillColor=#6ABD46;strokeColor=#ffffff;verticalAlign=top;align=center;points=[[0.085,0.085,0],[0.915,0.085,0],[0.915,0.915,0],[0.085,0.915,0],[0.25,0,0],[0.5,0,0],[0.75,0,0],[1,0.25,0],[1,0.5,0],[1,0.75,0],[0.75,1,0],[0.5,1,0],[0.25,1,0],[0,0.75,0],[0,0.5,0],[0,0.25,0]];pointerEvents=1;shape=mxgraph.cisco_safe.compositeIcon;bgIcon=mxgraph.cisco_safe.architecture.generic_appliance;resIcon=mxgraph.cisco_safe.architecture.fabric_switch;" vertex="1" parent="1">
          <mxGeometry x="510" y="480" width="50" height="50" as="geometry" />
        </mxCell>
        <mxCell id="PsuF3TFHvDe8dG68Cayl-76" value="" style="verticalLabelPosition=bottom;sketch=0;html=1;fillColor=#6ABD46;strokeColor=#ffffff;verticalAlign=top;align=center;points=[[0.085,0.085,0],[0.915,0.085,0],[0.915,0.915,0],[0.085,0.915,0],[0.25,0,0],[0.5,0,0],[0.75,0,0],[1,0.25,0],[1,0.5,0],[1,0.75,0],[0.75,1,0],[0.5,1,0],[0.25,1,0],[0,0.75,0],[0,0.5,0],[0,0.25,0]];pointerEvents=1;shape=mxgraph.cisco_safe.compositeIcon;bgIcon=mxgraph.cisco_safe.architecture.generic_appliance;resIcon=mxgraph.cisco_safe.architecture.fabric_switch;" vertex="1" parent="1">
          <mxGeometry x="680" y="480" width="50" height="50" as="geometry" />
        </mxCell>
        <mxCell id="PsuF3TFHvDe8dG68Cayl-77" value="&lt;b&gt;&lt;font style=&quot;font-size: 14px;&quot;&gt;EC&lt;/font&gt;&lt;/b&gt;" style="text;html=1;strokeColor=none;fillColor=none;align=center;verticalAlign=middle;whiteSpace=wrap;rounded=0;" vertex="1" parent="1">
          <mxGeometry x="735" y="490" width="60" height="30" as="geometry" />
        </mxCell>
        <mxCell id="PsuF3TFHvDe8dG68Cayl-78" value="" style="endArrow=none;html=1;rounded=0;strokeColor=#18a5ec;entryX=0.5;entryY=1;entryDx=0;entryDy=0;entryPerimeter=0;exitX=0.5;exitY=0;exitDx=0;exitDy=0;exitPerimeter=0;" edge="1" parent="1" source="PsuF3TFHvDe8dG68Cayl-69" target="PsuF3TFHvDe8dG68Cayl-75">
          <mxGeometry width="50" height="50" relative="1" as="geometry">
            <mxPoint x="680" y="1019" as="sourcePoint" />
            <mxPoint x="743" y="970" as="targetPoint" />
          </mxGeometry>
        </mxCell>
        <mxCell id="PsuF3TFHvDe8dG68Cayl-79" value="" style="endArrow=none;html=1;rounded=0;strokeColor=#18a5ec;entryX=0.5;entryY=1;entryDx=0;entryDy=0;entryPerimeter=0;exitX=0.5;exitY=0;exitDx=0;exitDy=0;exitPerimeter=0;" edge="1" parent="1" source="PsuF3TFHvDe8dG68Cayl-59" target="PsuF3TFHvDe8dG68Cayl-75">
          <mxGeometry width="50" height="50" relative="1" as="geometry">
            <mxPoint x="690" y="1029" as="sourcePoint" />
            <mxPoint x="753" y="980" as="targetPoint" />
          </mxGeometry>
        </mxCell>
        <mxCell id="PsuF3TFHvDe8dG68Cayl-80" value="" style="endArrow=none;html=1;rounded=0;strokeColor=#18a5ec;entryX=0.5;entryY=1;entryDx=0;entryDy=0;entryPerimeter=0;exitX=0.5;exitY=0;exitDx=0;exitDy=0;exitPerimeter=0;" edge="1" parent="1" source="PsuF3TFHvDe8dG68Cayl-59" target="PsuF3TFHvDe8dG68Cayl-76">
          <mxGeometry width="50" height="50" relative="1" as="geometry">
            <mxPoint x="700" y="1039" as="sourcePoint" />
            <mxPoint x="763" y="990" as="targetPoint" />
          </mxGeometry>
        </mxCell>
        <mxCell id="PsuF3TFHvDe8dG68Cayl-81" value="" style="endArrow=none;html=1;rounded=0;strokeColor=#18a5ec;entryX=0.5;entryY=1;entryDx=0;entryDy=0;entryPerimeter=0;" edge="1" parent="1" target="PsuF3TFHvDe8dG68Cayl-76">
          <mxGeometry width="50" height="50" relative="1" as="geometry">
            <mxPoint x="705" y="570" as="sourcePoint" />
            <mxPoint x="773" y="1000" as="targetPoint" />
          </mxGeometry>
        </mxCell>
        <mxCell id="PsuF3TFHvDe8dG68Cayl-82" value="" style="endArrow=none;html=1;rounded=0;strokeColor=#18a5ec;entryX=1;entryY=0.5;entryDx=0;entryDy=0;entryPerimeter=0;exitX=0;exitY=0.5;exitDx=0;exitDy=0;exitPerimeter=0;" edge="1" parent="1" source="PsuF3TFHvDe8dG68Cayl-76" target="PsuF3TFHvDe8dG68Cayl-75">
          <mxGeometry width="50" height="50" relative="1" as="geometry">
            <mxPoint x="720" y="1059" as="sourcePoint" />
            <mxPoint x="783" y="1010" as="targetPoint" />
          </mxGeometry>
        </mxCell>
        <mxCell id="PsuF3TFHvDe8dG68Cayl-83" value="&lt;font style=&quot;font-size: 10px;&quot;&gt;EBGP&lt;/font&gt;" style="text;html=1;strokeColor=none;fillColor=none;align=center;verticalAlign=middle;whiteSpace=wrap;rounded=0;fontSize=14;" vertex="1" parent="1">
          <mxGeometry x="450" y="620" width="50" height="30" as="geometry" />
        </mxCell>
        <mxCell id="PsuF3TFHvDe8dG68Cayl-84" value="&lt;font style=&quot;font-size: 10px;&quot;&gt;EBGP&lt;/font&gt;" style="text;html=1;strokeColor=none;fillColor=none;align=center;verticalAlign=middle;whiteSpace=wrap;rounded=0;fontSize=14;" vertex="1" parent="1">
          <mxGeometry x="450" y="540" width="50" height="30" as="geometry" />
        </mxCell>
        <mxCell id="PsuF3TFHvDe8dG68Cayl-85" value="" style="endArrow=classic;html=1;rounded=0;strokeColor=#18a5ec;fontSize=10;entryX=0.5;entryY=1;entryDx=0;entryDy=0;exitX=0.5;exitY=0;exitDx=0;exitDy=0;" edge="1" parent="1" source="PsuF3TFHvDe8dG68Cayl-83" target="PsuF3TFHvDe8dG68Cayl-84">
          <mxGeometry width="50" height="50" relative="1" as="geometry">
            <mxPoint x="475" y="610" as="sourcePoint" />
            <mxPoint x="520" y="960" as="targetPoint" />
          </mxGeometry>
        </mxCell>
        <mxCell id="PsuF3TFHvDe8dG68Cayl-86" value="" style="endArrow=classic;html=1;rounded=0;strokeColor=#18a5ec;fontSize=10;entryX=0.5;entryY=0;entryDx=0;entryDy=0;" edge="1" parent="1" target="PsuF3TFHvDe8dG68Cayl-84">
          <mxGeometry width="50" height="50" relative="1" as="geometry">
            <mxPoint x="475" y="500" as="sourcePoint" />
            <mxPoint x="630" y="970" as="targetPoint" />
          </mxGeometry>
        </mxCell>
        <mxCell id="PsuF3TFHvDe8dG68Cayl-87" value="" style="endArrow=classic;html=1;rounded=0;strokeColor=#18a5ec;fontSize=10;exitX=0.5;exitY=1;exitDx=0;exitDy=0;" edge="1" parent="1" source="PsuF3TFHvDe8dG68Cayl-83">
          <mxGeometry width="50" height="50" relative="1" as="geometry">
            <mxPoint x="470" y="1060" as="sourcePoint" />
            <mxPoint x="475" y="660" as="targetPoint" />
          </mxGeometry>
        </mxCell>
        <mxCell id="PsuF3TFHvDe8dG68Cayl-88" value="&lt;b&gt;&lt;font style=&quot;font-size: 18px;&quot;&gt;数据中心 B&lt;/font&gt;&lt;/b&gt;" style="text;html=1;strokeColor=none;fillColor=none;align=center;verticalAlign=middle;whiteSpace=wrap;rounded=0;fontSize=10;" vertex="1" parent="1">
          <mxGeometry x="530" y="770" width="140" height="30" as="geometry" />
        </mxCell>
        <mxCell id="PsuF3TFHvDe8dG68Cayl-89" value="&lt;span style=&quot;font-size: 10px;&quot;&gt;外网接入服务器&lt;/span&gt;" style="text;html=1;strokeColor=none;fillColor=none;align=center;verticalAlign=middle;whiteSpace=wrap;rounded=0;fontSize=14;" vertex="1" parent="1">
          <mxGeometry x="502.5" y="722" width="80" height="30" as="geometry" />
        </mxCell>
        <mxCell id="PsuF3TFHvDe8dG68Cayl-90" value="&lt;span style=&quot;font-size: 10px;&quot;&gt;外网接入服务器&lt;/span&gt;" style="text;html=1;strokeColor=none;fillColor=none;align=center;verticalAlign=middle;whiteSpace=wrap;rounded=0;fontSize=14;" vertex="1" parent="1">
          <mxGeometry x="660" y="722" width="80" height="30" as="geometry" />
        </mxCell>
        <mxCell id="PsuF3TFHvDe8dG68Cayl-91" value="" style="verticalLabelPosition=bottom;sketch=0;html=1;fillColor=#6ABD46;strokeColor=#ffffff;verticalAlign=top;align=center;points=[[0.085,0.085,0],[0.915,0.085,0],[0.915,0.915,0],[0.085,0.915,0],[0.25,0,0],[0.5,0,0],[0.75,0,0],[1,0.25,0],[1,0.5,0],[1,0.75,0],[0.75,1,0],[0.5,1,0],[0.25,1,0],[0,0.75,0],[0,0.5,0],[0,0.25,0]];pointerEvents=1;shape=mxgraph.cisco_safe.compositeIcon;bgIcon=mxgraph.cisco_safe.architecture.generic_appliance;resIcon=mxgraph.cisco_safe.architecture.l3_switch;rounded=0;dashed=1;fontSize=18;" vertex="1" parent="1">
          <mxGeometry x="240" y="140" width="50" height="50" as="geometry" />
        </mxCell>
        <mxCell id="PsuF3TFHvDe8dG68Cayl-92" value="" style="verticalLabelPosition=bottom;sketch=0;html=1;fillColor=#6ABD46;strokeColor=#ffffff;verticalAlign=top;align=center;points=[[0.085,0.085,0],[0.915,0.085,0],[0.915,0.915,0],[0.085,0.915,0],[0.25,0,0],[0.5,0,0],[0.75,0,0],[1,0.25,0],[1,0.5,0],[1,0.75,0],[0.75,1,0],[0.5,1,0],[0.25,1,0],[0,0.75,0],[0,0.5,0],[0,0.25,0]];pointerEvents=1;shape=mxgraph.cisco_safe.compositeIcon;bgIcon=mxgraph.cisco_safe.architecture.generic_appliance;resIcon=mxgraph.cisco_safe.architecture.l3_switch;rounded=0;dashed=1;fontSize=18;" vertex="1" parent="1">
          <mxGeometry x="360" y="140" width="50" height="50" as="geometry" />
        </mxCell>
        <mxCell id="PsuF3TFHvDe8dG68Cayl-93" value="" style="verticalLabelPosition=bottom;sketch=0;html=1;fillColor=#6ABD46;strokeColor=#ffffff;verticalAlign=top;align=center;points=[[0.085,0.085,0],[0.915,0.085,0],[0.915,0.915,0],[0.085,0.915,0],[0.25,0,0],[0.5,0,0],[0.75,0,0],[1,0.25,0],[1,0.5,0],[1,0.75,0],[0.75,1,0],[0.5,1,0],[0.25,1,0],[0,0.75,0],[0,0.5,0],[0,0.25,0]];pointerEvents=1;shape=mxgraph.cisco_safe.compositeIcon;bgIcon=mxgraph.cisco_safe.architecture.generic_appliance;resIcon=mxgraph.cisco_safe.architecture.l3_switch;rounded=0;dashed=1;fontSize=18;" vertex="1" parent="1">
          <mxGeometry x="480" y="140" width="50" height="50" as="geometry" />
        </mxCell>
      </root>
    </mxGraphModel>
  </diagram>
</mxfile>
